<?xml version="1.0" encoding="utf-8" standalone="no"?>
<!DOCTYPE svg PUBLIC "-//W3C//DTD SVG 1.1//EN"
  "http://www.w3.org/Graphics/SVG/1.1/DTD/svg11.dtd">
<!-- Created with matplotlib (http://matplotlib.org/) -->
<svg height="234.434655pt" version="1.1" viewBox="0 0 416.77272 234.434655" width="416.77272pt" xmlns="http://www.w3.org/2000/svg" xmlns:xlink="http://www.w3.org/1999/xlink">
 <defs>
  <style type="text/css">
*{stroke-linecap:butt;stroke-linejoin:round;}
  </style>
 </defs>
 <g id="figure_1">
  <g id="patch_1">
   <path d="M 0 234.434655 
L 416.77272 234.434655 
L 416.77272 0 
L 0 0 
z
" style="fill:#ffffff;"/>
  </g>
  <g id="axes_1">
   <g id="patch_2">
    <path d="M 49.195369 189.900986 
L 408.75272 189.900986 
L 408.75272 19.20625 
L 49.195369 19.20625 
z
" style="fill:#ffffff;"/>
   </g>
   <g id="patch_3">
    <path clip-path="url(#p9a69e42160)" d="M 65.538885 189.900986 
L 106.397675 189.900986 
L 106.397675 187.023 
L 65.538885 187.023 
z
" style="fill:#1f77b4;"/>
   </g>
   <g id="patch_4">
    <path clip-path="url(#p9a69e42160)" d="M 188.115255 189.900986 
L 228.974045 189.900986 
L 228.974045 185.71554 
L 188.115255 185.71554 
z
" style="fill:#1f77b4;"/>
   </g>
   <g id="patch_5">
    <path clip-path="url(#p9a69e42160)" d="M 310.691624 189.900986 
L 351.550414 189.900986 
L 351.550414 27.334571 
L 310.691624 27.334571 
z
" style="fill:#1f77b4;"/>
   </g>
   <g id="patch_6">
    <path clip-path="url(#p9a69e42160)" d="M 106.397675 189.900986 
L 147.256465 189.900986 
L 147.256465 186.162209 
L 106.397675 186.162209 
z
" style="fill:#ff7f0e;"/>
   </g>
   <g id="patch_7">
    <path clip-path="url(#p9a69e42160)" d="M 228.974045 189.900986 
L 269.832834 189.900986 
L 269.832834 183.929337 
L 228.974045 183.929337 
z
" style="fill:#ff7f0e;"/>
   </g>
   <g id="patch_8">
    <path clip-path="url(#p9a69e42160)" d="M 351.550414 189.900986 
L 392.409204 189.900986 
L 392.409204 45.918545 
L 351.550414 45.918545 
z
" style="fill:#ff7f0e;"/>
   </g>
   <g id="matplotlib.axis_1">
    <g id="xtick_1">
     <g id="line2d_1">
      <defs>
       <path d="M 0 0 
L 0 3.5 
" id="mf1d6d3af72" style="stroke:#000000;stroke-width:0.8;"/>
      </defs>
      <g>
       <use style="stroke:#000000;stroke-width:0.8;" x="106.397675" xlink:href="#mf1d6d3af72" y="189.900986"/>
      </g>
     </g>
     <g id="text_1">
      <!-- \texttt{hpx::make\_ready\_future} -->
      <defs>
       <path d="M 41.796875 29.359375 
C 41.796875 39.171875 37.203125 43.796875 29 43.796875 
C 22.203125 43.796875 17.796875 40 16.09375 38.09375 
L 16.09375 56.9375 
C 16.09375 60.015625 15.5 61 12.09375 61 
L 5.5 61 
C 4.09375 61 1.5 61 1.5 58.109375 
C 1.5 55.203125 4.09375 55.203125 5.5 55.203125 
L 9.59375 55.203125 
L 9.59375 5.796875 
L 5.5 5.796875 
C 4.09375 5.796875 1.5 5.796875 1.5 2.90625 
C 1.5 0 4.09375 0 5.5 0 
L 20.203125 0 
C 21.59375 0 24.203125 0 24.203125 2.90625 
C 24.203125 5.796875 21.59375 5.796875 20.203125 5.796875 
L 16.09375 5.796875 
L 16.09375 23.953125 
C 16.09375 33.671875 22.90625 38 28.296875 38 
C 34.09375 38 35.296875 34.671875 35.296875 28.96875 
L 35.296875 5.796875 
L 31.203125 5.796875 
C 29.796875 5.796875 27.203125 5.796875 27.203125 2.90625 
C 27.203125 0 29.796875 0 31.203125 0 
L 45.90625 0 
C 47.296875 0 49.90625 0 49.90625 2.90625 
C 49.90625 5.796875 47.296875 5.796875 45.90625 5.796875 
L 41.796875 5.796875 
z
" id="CMTT12-104"/>
       <path d="M 20.203125 -22 
C 21.59375 -22 24.203125 -22 24.203125 -19.09375 
C 24.203125 -16.203125 21.59375 -16.203125 20.203125 -16.203125 
L 16.09375 -16.203125 
L 16.09375 5.09375 
C 18.5 2.390625 22.203125 -0.5 27.796875 -0.5 
C 38.40625 -0.5 47.703125 9.046875 47.703125 21.796875 
C 47.703125 34.15625 39.296875 44 28.90625 44 
C 21.59375 44 17 39.578125 16.09375 38.578125 
C 16.09375 41.625 16.09375 43 12.09375 43 
L 5.5 43 
C 4.09375 43 1.5 43 1.5 40.109375 
C 1.5 37.203125 4.09375 37.203125 5.5 37.203125 
L 9.59375 37.203125 
L 9.59375 -16.203125 
L 5.5 -16.203125 
C 4.09375 -16.203125 1.5 -16.203125 1.5 -19.09375 
C 1.5 -22 4.09375 -22 5.5 -22 
z
M 16.09375 26.828125 
C 16.09375 32.5625 21.703125 38.203125 28.203125 38.203125 
C 35.40625 38.203125 41.203125 30.84375 41.203125 21.796875 
C 41.203125 12.140625 34.40625 5.296875 27.296875 5.296875 
C 19.796875 5.296875 16.09375 13.84375 16.09375 18.875 
z
" id="CMTT12-112"/>
       <path d="M 28.203125 22.15625 
L 39.703125 37.203125 
L 43.203125 37.203125 
C 44.59375 37.203125 47.203125 37.203125 47.203125 40.109375 
C 47.203125 43 44.59375 43 43.203125 43 
L 32.09375 43 
C 30.703125 43 28.09375 43 28.09375 40.109375 
C 28.09375 37.203125 30.5 37.203125 32.90625 37.203125 
L 25.40625 26.9375 
L 17.703125 37.203125 
C 20 37.203125 22.40625 37.203125 22.40625 40.109375 
C 22.40625 43 19.796875 43 18.40625 43 
L 7.296875 43 
C 5.90625 43 3.296875 43 3.296875 40.109375 
C 3.296875 37.203125 5.90625 37.203125 7.296875 37.203125 
L 10.796875 37.203125 
L 22.703125 22.140625 
L 10.203125 5.796875 
L 6.796875 5.796875 
C 5.40625 5.796875 2.703125 5.796875 2.703125 2.90625 
C 2.703125 0 5.40625 0 6.796875 0 
L 17.796875 0 
C 19.203125 0 21.796875 0 21.796875 2.90625 
C 21.796875 5.796875 19.5 5.796875 16.796875 5.796875 
L 25.40625 18.359375 
L 34.40625 5.796875 
C 31.90625 5.796875 29.5 5.796875 29.5 2.90625 
C 29.5 0 32.09375 0 33.5 0 
L 44.59375 0 
C 46 0 48.59375 0 48.59375 2.90625 
C 48.59375 5.796875 46 5.796875 44.59375 5.796875 
L 41.09375 5.796875 
z
" id="CMTT12-120"/>
       <path d="M 31.40625 37.3125 
C 31.40625 40.609375 28.703125 43 25.796875 43 
C 22.59375 43 20.09375 40.5 20.09375 37.3125 
C 20.09375 34.3125 22.703125 31.703125 25.703125 31.703125 
C 29 31.703125 31.40625 34.40625 31.40625 37.3125 
z
M 31.40625 5.59375 
C 31.40625 8.90625 28.703125 11.296875 25.796875 11.296875 
C 22.59375 11.296875 20.09375 8.796875 20.09375 5.59375 
C 20.09375 2.59375 22.703125 0 25.703125 0 
C 29 0 31.40625 2.703125 31.40625 5.59375 
z
" id="CMTT12-58"/>
       <path d="M 45.296875 30.359375 
C 45.296875 32.5625 45.296875 43.796875 36.5 43.796875 
C 33 43.796875 29.59375 42.1875 26.90625 38.484375 
C 26.296875 39.984375 24.09375 43.796875 19.296875 43.796875 
C 14.796875 43.796875 11.703125 40.828125 10.90625 39.921875 
C 10.796875 43 8.703125 43 6.90625 43 
L 3.90625 43 
C 2.5 43 -0.09375 43 -0.09375 40.109375 
C -0.09375 37.203125 2.203125 37.203125 5.296875 37.203125 
L 5.296875 5.796875 
C 2.09375 5.796875 -0.09375 5.796875 -0.09375 2.90625 
C -0.09375 0 2.5 0 3.90625 0 
L 12.296875 0 
C 13.703125 0 16.296875 0 16.296875 2.90625 
C 16.296875 5.796875 14 5.796875 10.90625 5.796875 
L 10.90625 24.25 
C 10.90625 32.671875 14.5 38 18.90625 38 
C 21.703125 38 22.5 34.484375 22.5 29.765625 
L 22.5 5.796875 
C 20.796875 5.796875 18.09375 5.796875 18.09375 2.90625 
C 18.09375 0 20.796875 0 22.203125 0 
L 29.5 0 
C 30.90625 0 33.5 0 33.5 2.90625 
C 33.5 5.796875 31.203125 5.796875 28.09375 5.796875 
L 28.09375 24.25 
C 28.09375 32.671875 31.703125 38 36.09375 38 
C 38.90625 38 39.703125 34.484375 39.703125 29.765625 
L 39.703125 5.796875 
C 38 5.796875 35.296875 5.796875 35.296875 2.90625 
C 35.296875 0 38 0 39.40625 0 
L 46.703125 0 
C 48.09375 0 50.703125 0 50.703125 2.90625 
C 50.703125 5.796875 48.40625 5.796875 45.296875 5.796875 
z
" id="CMTT12-109"/>
       <path d="M 41.40625 28.375 
C 41.40625 35.984375 35.703125 44 22.203125 44 
C 18 44 8.296875 44 8.296875 37.1875 
C 8.296875 34.53125 10.203125 33.046875 12.40625 33.046875 
C 13 33.046875 16.296875 33.046875 16.40625 37.3125 
C 16.40625 37.796875 16.5 37.90625 18.59375 38.09375 
C 19.796875 38.203125 21.09375 38.203125 22.296875 38.203125 
C 24.59375 38.203125 28 38.203125 31.296875 35.65625 
C 34.90625 32.8125 34.90625 29.9375 34.90625 27 
C 29 27 23.203125 27 17 24.984375 
C 12 23.265625 5.59375 19.625 5.59375 12.75 
C 5.59375 5.5625 11.90625 -0.5 21.203125 -0.5 
C 24.40625 -0.5 30.59375 0 35.796875 3.53125 
C 37.796875 0 42.796875 0 46.59375 0 
C 49 0 51.40625 0 51.40625 2.859375 
C 51.40625 5.703125 48.796875 5.703125 47.40625 5.703125 
C 44.796875 5.703125 42.796875 5.90625 41.40625 6.515625 
z
M 34.90625 13.296875 
C 34.90625 11 34.90625 8.890625 30.796875 7 
C 27.296875 5.296875 22.59375 5.296875 22.296875 5.296875 
C 16.40625 5.296875 12.09375 8.5 12.09375 12.59375 
C 12.09375 18.5 22.796875 21.890625 34.90625 21.890625 
z
" id="CMTT12-97"/>
       <path d="M 28.203125 25.4375 
L 40.59375 37.203125 
L 43.59375 37.203125 
C 45 37.203125 47.59375 37.203125 47.59375 40.109375 
C 47.59375 43 45 43 43.59375 43 
L 29 43 
C 27.59375 43 24.90625 43 24.90625 40.109375 
C 24.90625 37.203125 27.59375 37.203125 29 37.203125 
L 32.5 37.203125 
L 16.296875 21.84375 
L 16.296875 56.90625 
C 16.296875 60 15.703125 61 12.296875 61 
L 6.203125 61 
C 4.796875 61 2.09375 61 2.09375 58.109375 
C 2.09375 55.203125 4.796875 55.203125 6.203125 55.203125 
L 10.703125 55.203125 
L 10.703125 5.796875 
L 6.203125 5.796875 
C 4.796875 5.796875 2.09375 5.796875 2.09375 2.90625 
C 2.09375 0 4.796875 0 6.203125 0 
L 20.796875 0 
C 22.203125 0 24.90625 0 24.90625 2.90625 
C 24.90625 5.796875 22.203125 5.796875 20.796875 5.796875 
L 16.296875 5.796875 
L 16.296875 14.171875 
L 24.09375 21.546875 
L 36 5.796875 
C 32.796875 5.796875 30.40625 5.796875 30.40625 2.90625 
C 30.40625 0 33.09375 0 34.5 0 
L 45.703125 0 
C 47.09375 0 49.703125 0 49.703125 2.90625 
C 49.703125 5.796875 47.09375 5.796875 45.703125 5.796875 
L 43 5.796875 
z
" id="CMTT12-107"/>
       <path d="M 41.59375 19.5 
C 43.703125 19.5 45.59375 19.5 45.59375 23.15625 
C 45.59375 34.703125 39 44 26.5 44 
C 14.90625 44 5.59375 34.015625 5.59375 21.84375 
C 5.59375 9.28125 15.703125 -0.5 28 -0.5 
C 40.90625 -0.5 45.59375 8.453125 45.59375 11.078125 
C 45.59375 11.6875 45.40625 13.921875 42.296875 13.921875 
C 40.40625 13.921875 39.796875 13.203125 39.203125 11.6875 
C 36.703125 5.796875 30.203125 5.296875 28.296875 5.296875 
C 20 5.296875 13.40625 11.6875 12.296875 19.5 
z
M 12.40625 25 
C 13.703125 33.3125 20.203125 38.203125 26.5 38.203125 
C 36.5 38.203125 38.59375 29.890625 39 25 
z
" id="CMTT12-101"/>
       <path d="M 21.59375 18.9375 
C 21.59375 30.875 30 38 38.5 38 
C 39 38 39.59375 38 40.09375 37.890625 
C 40.40625 34.140625 43.203125 33.828125 43.90625 33.828125 
C 46.203125 33.828125 47.796875 35.546875 47.796875 37.78125 
C 47.796875 42.15625 43.59375 43.796875 38.59375 43.796875 
C 31.90625 43.796875 26.203125 40.734375 21.59375 35.015625 
L 21.59375 38.921875 
C 21.59375 42 21 43 17.59375 43 
L 7.5 43 
C 6.09375 43 3.5 43 3.5 40.109375 
C 3.5 37.203125 6.09375 37.203125 7.5 37.203125 
L 15.09375 37.203125 
L 15.09375 5.796875 
L 7.5 5.796875 
C 6.09375 5.796875 3.5 5.796875 3.5 2.90625 
C 3.5 0 6.09375 0 7.5 0 
L 32.09375 0 
C 33.5 0 36.09375 0 36.09375 2.90625 
C 36.09375 5.796875 33.5 5.796875 32.09375 5.796875 
L 21.59375 5.796875 
z
" id="CMTT12-114"/>
       <path d="M 41.796875 56.90625 
C 41.796875 60 41.203125 61 37.796875 61 
L 31.203125 61 
C 29.796875 61 27.203125 61 27.203125 58.109375 
C 27.203125 55.203125 29.796875 55.203125 31.203125 55.203125 
L 35.296875 55.203125 
L 35.296875 38.796875 
C 33.703125 40.390625 29.59375 43.796875 23.5 43.796875 
C 12.90625 43.796875 3.703125 34.1875 3.703125 21.59375 
C 3.703125 9.296875 12.296875 -0.5 22.59375 -0.5 
C 29.09375 -0.5 33.40625 3.359375 35.296875 5.546875 
C 35.296875 1.3125 35.296875 0 39.296875 0 
L 45.90625 0 
C 47.296875 0 49.90625 0 49.90625 2.90625 
C 49.90625 5.796875 47.296875 5.796875 45.90625 5.796875 
L 41.796875 5.796875 
z
M 35.296875 19.09375 
C 35.296875 13.5 30.703125 5.296875 23.203125 5.296875 
C 16 5.296875 10.203125 12.59375 10.203125 21.59375 
C 10.203125 31.1875 17 38 24.09375 38 
C 30.59375 38 35.296875 32.09375 35.296875 26.890625 
z
" id="CMTT12-100"/>
       <path d="M 42.40625 37.203125 
L 45 37.203125 
C 46.40625 37.203125 49.09375 37.203125 49.09375 40.109375 
C 49.09375 43 46.40625 43 45 43 
L 34 43 
C 32.59375 43 29.90625 43 29.90625 40.109375 
C 29.90625 37.203125 32.59375 37.203125 34 37.203125 
L 36.5 37.203125 
C 33.703125 29.0625 28 12.515625 26.59375 6.859375 
L 26.5 6.859375 
C 26 9.046875 25.59375 10.125 24.59375 12.8125 
L 15.296875 37.203125 
L 17.59375 37.203125 
C 19 37.203125 21.703125 37.203125 21.703125 40.109375 
C 21.703125 43 19 43 17.59375 43 
L 6.59375 43 
C 5.203125 43 2.5 43 2.5 40.109375 
C 2.5 37.203125 5.203125 37.203125 6.59375 37.203125 
L 9.296875 37.203125 
L 23.296875 1.46875 
C 23.703125 0.46875 23.703125 0.265625 23.703125 0.171875 
C 23.703125 -0.03125 21.09375 -8.671875 19.59375 -11.4375 
C 19 -12.4375 16.5 -17.109375 11.703125 -16.609375 
C 11.796875 -16.296875 12.09375 -15.703125 12.09375 -14.609375 
C 12.09375 -12.296875 10.5 -10.703125 8.203125 -10.703125 
C 5.703125 -10.703125 4.203125 -12.40625 4.203125 -14.703125 
C 4.203125 -18.5 7.40625 -22.5 12.40625 -22.5 
C 22.09375 -22.5 26.40625 -9.6875 26.703125 -8.890625 
z
" id="CMTT12-121"/>
       <path d="M 24.703125 37.203125 
L 36.796875 37.203125 
C 38.203125 37.203125 40.796875 37.203125 40.796875 40.109375 
C 40.796875 43 38.203125 43 36.796875 43 
L 24.703125 43 
L 24.703125 48.078125 
C 24.703125 56 31.703125 56 34.90625 56 
C 34.90625 55.796875 35.703125 52.03125 39 52.03125 
C 40.59375 52.03125 42.90625 53.234375 42.90625 56.0625 
C 42.90625 61.796875 35.296875 61.796875 33.796875 61.796875 
C 26.203125 61.796875 18.203125 57.453125 18.203125 48.453125 
L 18.203125 43 
L 8.296875 43 
C 6.90625 43 4.203125 43 4.203125 40.109375 
C 4.203125 37.203125 6.796875 37.203125 8.203125 37.203125 
L 18.203125 37.203125 
L 18.203125 5.796875 
L 8.703125 5.796875 
C 7.296875 5.796875 4.703125 5.796875 4.703125 2.90625 
C 4.703125 0 7.296875 0 8.703125 0 
L 34.203125 0 
C 35.59375 0 38.203125 0 38.203125 2.90625 
C 38.203125 5.796875 35.59375 5.796875 34.203125 5.796875 
L 24.703125 5.796875 
z
" id="CMTT12-102"/>
       <path d="M 41.796875 38.921875 
C 41.796875 42 41.203125 43 37.796875 43 
L 31.203125 43 
C 29.796875 43 27.203125 43 27.203125 40.109375 
C 27.203125 37.203125 29.796875 37.203125 31.203125 37.203125 
L 35.296875 37.203125 
L 35.296875 15.625 
C 35.296875 7.484375 28.5 5.296875 24 5.296875 
C 16.09375 5.296875 16.09375 8.875 16.09375 11.96875 
L 16.09375 38.921875 
C 16.09375 42 15.5 43 12.09375 43 
L 5.5 43 
C 4.09375 43 1.5 43 1.5 40.109375 
C 1.5 37.203125 4.09375 37.203125 5.5 37.203125 
L 9.59375 37.203125 
L 9.59375 11.4375 
C 9.59375 2.28125 15.59375 -0.5 23.296875 -0.5 
C 29.40625 -0.5 33.203125 1.984375 35.203125 3.671875 
C 35.203125 0 37.59375 0 39.296875 0 
L 45.90625 0 
C 47.296875 0 49.90625 0 49.90625 2.90625 
C 49.90625 5.796875 47.296875 5.796875 45.90625 5.796875 
L 41.796875 5.796875 
z
" id="CMTT12-117"/>
       <path d="M 21.59375 37.203125 
L 37.796875 37.203125 
C 39.203125 37.203125 41.796875 37.203125 41.796875 40.109375 
C 41.796875 43 39.203125 43 37.796875 43 
L 21.59375 43 
L 21.59375 51.328125 
C 21.59375 53.15625 21.59375 55.5 18.40625 55.5 
C 15.09375 55.5 15.09375 53.15625 15.09375 51.328125 
L 15.09375 43 
L 6.59375 43 
C 5.203125 43 2.5 43 2.5 40.109375 
C 2.5 37.203125 5.09375 37.203125 6.5 37.203125 
L 15.09375 37.203125 
L 15.09375 12.125 
C 15.09375 2.875 21.5 -0.5 28.703125 -0.5 
C 34.09375 -0.5 44 2.171875 44 12.34375 
C 44 14.34375 44 16.53125 40.703125 16.53125 
C 37.5 16.53125 37.5 14.34375 37.5 12.265625 
C 37.40625 6.296875 31.703125 5.296875 29.40625 5.296875 
C 21.59375 5.296875 21.59375 10.265625 21.59375 12.640625 
z
" id="CMTT12-116"/>
      </defs>
      <g transform="translate(45.235632 204.095923)rotate(-350)scale(0.11 -0.11)">
       <use transform="scale(0.996264)" xlink:href="#CMTT12-104"/>
       <use transform="translate(51.266111 0)scale(0.996264)" xlink:href="#CMTT12-112"/>
       <use transform="translate(102.532222 0)scale(0.996264)" xlink:href="#CMTT12-120"/>
       <use transform="translate(153.798333 0)scale(0.996264)" xlink:href="#CMTT12-58"/>
       <use transform="translate(205.064443 0)scale(0.996264)" xlink:href="#CMTT12-58"/>
       <use transform="translate(256.330554 0)scale(0.996264)" xlink:href="#CMTT12-109"/>
       <use transform="translate(307.596665 0)scale(0.996264)" xlink:href="#CMTT12-97"/>
       <use transform="translate(358.862776 0)scale(0.996264)" xlink:href="#CMTT12-107"/>
       <use transform="translate(410.128887 0)scale(0.996264)" xlink:href="#CMTT12-101"/>
       <use transform="translate(498.306643 0)scale(0.996264)" xlink:href="#CMTT12-114"/>
       <use transform="translate(549.572754 0)scale(0.996264)" xlink:href="#CMTT12-101"/>
       <use transform="translate(600.838865 0)scale(0.996264)" xlink:href="#CMTT12-97"/>
       <use transform="translate(652.104976 0)scale(0.996264)" xlink:href="#CMTT12-100"/>
       <use transform="translate(703.371086 0)scale(0.996264)" xlink:href="#CMTT12-121"/>
       <use transform="translate(791.548843 0)scale(0.996264)" xlink:href="#CMTT12-102"/>
       <use transform="translate(842.814954 0)scale(0.996264)" xlink:href="#CMTT12-117"/>
       <use transform="translate(894.081064 0)scale(0.996264)" xlink:href="#CMTT12-116"/>
       <use transform="translate(945.347175 0)scale(0.996264)" xlink:href="#CMTT12-117"/>
       <use transform="translate(996.613286 0)scale(0.996264)" xlink:href="#CMTT12-114"/>
       <use transform="translate(1047.879397 0)scale(0.996264)" xlink:href="#CMTT12-101"/>
       <path d="M 467.546673 0 
L 498.306643 0 
L 498.306643 0.3985 
L 467.546673 0.3985 
L 467.546673 0 
z
"/>
       <path d="M 760.788872 0 
L 791.548843 0 
L 791.548843 0.3985 
L 760.788872 0.3985 
L 760.788872 0 
z
"/>
      </g>
     </g>
    </g>
    <g id="xtick_2">
     <g id="line2d_2">
      <g>
       <use style="stroke:#000000;stroke-width:0.8;" x="228.974045" xlink:href="#mf1d6d3af72" y="189.900986"/>
      </g>
     </g>
     <g id="text_2">
      <!-- \texttt{hpx::promise} -->
      <defs>
       <path d="M 45.59375 21.640625 
C 45.59375 34.109375 36.5 44 25.703125 44 
C 14.90625 44 5.796875 34.109375 5.796875 21.640625 
C 5.796875 9.078125 15 -0.5 25.703125 -0.5 
C 36.40625 -0.5 45.59375 9.078125 45.59375 21.640625 
z
M 25.703125 5.296875 
C 18.5 5.296875 12.296875 12.875 12.296875 22.34375 
C 12.296875 31.609375 18.703125 38.203125 25.703125 38.203125 
C 32.703125 38.203125 39.09375 31.609375 39.09375 22.34375 
C 39.09375 12.78125 32.90625 5.296875 25.703125 5.296875 
z
" id="CMTT12-111"/>
       <path d="M 30.203125 56.5 
C 30.203125 59 28.203125 61 25.703125 61 
C 23.203125 61 21.203125 59 21.203125 56.5 
C 21.203125 54 23.203125 52 25.703125 52 
C 28.203125 52 30.203125 54 30.203125 56.5 
z
M 13 43 
C 11.59375 43 9 43 9 40.109375 
C 9 37.203125 11.59375 37.203125 13 37.203125 
L 23.703125 37.203125 
L 23.703125 5.796875 
L 12.296875 5.796875 
C 10.90625 5.796875 8.203125 5.796875 8.203125 2.90625 
C 8.203125 0 10.90625 0 12.296875 0 
L 40.09375 0 
C 41.5 0 44.09375 0 44.09375 2.90625 
C 44.09375 5.796875 41.5 5.796875 40.09375 5.796875 
L 30.203125 5.796875 
L 30.203125 38.921875 
C 30.203125 42 29.59375 43 26.203125 43 
z
" id="CMTT12-105"/>
       <path d="M 42 40.203125 
C 42 41.796875 42 44 39.203125 44 
C 36.796875 44 36.203125 41.703125 36.203125 41.59375 
C 32.203125 44 27.59375 44 25.59375 44 
C 9.296875 44 7.09375 35.71875 7.09375 32.328125 
C 7.09375 28.234375 9.5 25.453125 12.90625 23.546875 
C 16.09375 21.75 19 21.265625 27.203125 19.96875 
C 31.09375 19.265625 39.09375 17.96875 39.09375 12.484375 
C 39.09375 8.78125 35.703125 5.296875 26.40625 5.296875 
C 20 5.296875 15.796875 7.796875 13.703125 15 
C 13.203125 16.390625 12.90625 17.5 10.40625 17.5 
C 7.09375 17.5 7.09375 15.59375 7.09375 13.59375 
L 7.09375 3.296875 
C 7.09375 1.6875 7.09375 -0.5 9.90625 -0.5 
C 11.09375 -0.5 12 -0.5 13.5 3.59375 
C 18.09375 -0.5 23.296875 -0.5 26.40625 -0.5 
C 44.90625 -0.5 44.90625 11.46875 44.90625 12.46875 
C 44.90625 22.828125 32.5 24.9375 27.703125 25.625 
C 18.90625 27.125 12.90625 28.125 12.90625 32.3125 
C 12.90625 35.015625 16 38.203125 25.40625 38.203125 
C 34.90625 38.203125 35.296875 33.703125 35.5 31.09375 
C 35.703125 29.09375 37.5 28.796875 38.703125 28.796875 
C 42 28.796875 42 30.59375 42 32.59375 
z
" id="CMTT12-115"/>
      </defs>
      <g transform="translate(194.555359 204.095923)rotate(-350)scale(0.11 -0.11)">
       <use transform="scale(0.996264)" xlink:href="#CMTT12-104"/>
       <use transform="translate(51.266111 0)scale(0.996264)" xlink:href="#CMTT12-112"/>
       <use transform="translate(102.532222 0)scale(0.996264)" xlink:href="#CMTT12-120"/>
       <use transform="translate(153.798333 0)scale(0.996264)" xlink:href="#CMTT12-58"/>
       <use transform="translate(205.064443 0)scale(0.996264)" xlink:href="#CMTT12-58"/>
       <use transform="translate(256.330554 0)scale(0.996264)" xlink:href="#CMTT12-112"/>
       <use transform="translate(307.596665 0)scale(0.996264)" xlink:href="#CMTT12-114"/>
       <use transform="translate(358.862776 0)scale(0.996264)" xlink:href="#CMTT12-111"/>
       <use transform="translate(410.128887 0)scale(0.996264)" xlink:href="#CMTT12-109"/>
       <use transform="translate(461.394998 0)scale(0.996264)" xlink:href="#CMTT12-105"/>
       <use transform="translate(512.661108 0)scale(0.996264)" xlink:href="#CMTT12-115"/>
       <use transform="translate(563.927219 0)scale(0.996264)" xlink:href="#CMTT12-101"/>
      </g>
     </g>
    </g>
    <g id="xtick_3">
     <g id="line2d_3">
      <g>
       <use style="stroke:#000000;stroke-width:0.8;" x="351.550414" xlink:href="#mf1d6d3af72" y="189.900986"/>
      </g>
     </g>
     <g id="text_3">
      <!-- \texttt{std::promise} -->
      <g transform="translate(317.131729 204.095923)rotate(-350)scale(0.11 -0.11)">
       <use transform="scale(0.996264)" xlink:href="#CMTT12-115"/>
       <use transform="translate(51.266111 0)scale(0.996264)" xlink:href="#CMTT12-116"/>
       <use transform="translate(102.532222 0)scale(0.996264)" xlink:href="#CMTT12-100"/>
       <use transform="translate(153.798333 0)scale(0.996264)" xlink:href="#CMTT12-58"/>
       <use transform="translate(205.064443 0)scale(0.996264)" xlink:href="#CMTT12-58"/>
       <use transform="translate(256.330554 0)scale(0.996264)" xlink:href="#CMTT12-112"/>
       <use transform="translate(307.596665 0)scale(0.996264)" xlink:href="#CMTT12-114"/>
       <use transform="translate(358.862776 0)scale(0.996264)" xlink:href="#CMTT12-111"/>
       <use transform="translate(410.128887 0)scale(0.996264)" xlink:href="#CMTT12-109"/>
       <use transform="translate(461.394998 0)scale(0.996264)" xlink:href="#CMTT12-105"/>
       <use transform="translate(512.661108 0)scale(0.996264)" xlink:href="#CMTT12-115"/>
       <use transform="translate(563.927219 0)scale(0.996264)" xlink:href="#CMTT12-101"/>
      </g>
     </g>
    </g>
   </g>
   <g id="matplotlib.axis_2">
    <g id="ytick_1">
     <g id="line2d_4">
      <defs>
       <path d="M 0 0 
L -3.5 0 
" id="mcb0f9c7e86" style="stroke:#000000;stroke-width:0.8;"/>
      </defs>
      <g>
       <use style="stroke:#000000;stroke-width:0.8;" x="49.195369" xlink:href="#mcb0f9c7e86" y="189.900986"/>
      </g>
     </g>
     <g id="text_4">
      <!-- $0$ -->
      <defs>
       <path d="M 42 31.640625 
C 42 37.75 41.90625 48.125 37.703125 56.109375 
C 34 63.109375 28.09375 65.59375 22.90625 65.59375 
C 18.09375 65.59375 12 63.40625 8.203125 56.203125 
C 4.203125 48.71875 3.796875 39.4375 3.796875 31.640625 
C 3.796875 25.953125 3.90625 17.28125 7 9.671875 
C 11.296875 -0.609375 19 -2 22.90625 -2 
C 27.5 -2 34.5 -0.109375 38.59375 9.375 
C 41.59375 16.28125 42 24.359375 42 31.640625 
z
M 22.90625 -0.40625 
C 16.5 -0.40625 12.703125 5.078125 11.296875 12.6875 
C 10.203125 18.5625 10.203125 27.15625 10.203125 32.75 
C 10.203125 40.4375 10.203125 46.828125 11.5 52.921875 
C 13.40625 61.390625 19 64 22.90625 64 
C 27 64 32.296875 61.296875 34.203125 53.125 
C 35.5 47.4375 35.59375 40.734375 35.59375 32.75 
C 35.59375 26.25 35.59375 18.265625 34.40625 12.375 
C 32.296875 1.484375 26.40625 -0.40625 22.90625 -0.40625 
z
" id="CMR17-48"/>
      </defs>
      <g transform="translate(36.715902 193.706159)scale(0.11 -0.11)">
       <use transform="scale(0.996264)" xlink:href="#CMR17-48"/>
      </g>
     </g>
    </g>
    <g id="ytick_2">
     <g id="line2d_5">
      <g>
       <use style="stroke:#000000;stroke-width:0.8;" x="49.195369" xlink:href="#mcb0f9c7e86" y="144.0731"/>
      </g>
     </g>
     <g id="text_5">
      <!-- $2000$ -->
      <defs>
       <path d="M 41.703125 15.453125 
L 39.90625 15.453125 
C 38.90625 8.375 38.09375 7.171875 37.703125 6.5625 
C 37.203125 5.765625 30 5.765625 28.59375 5.765625 
L 9.40625 5.765625 
C 13 9.671875 20 16.75 28.5 24.953125 
C 34.59375 30.734375 41.703125 37.53125 41.703125 47.421875 
C 41.703125 59.21875 32.296875 66 21.796875 66 
C 10.796875 66 4.09375 56.3125 4.09375 47.34375 
C 4.09375 43.4375 7 42.9375 8.203125 42.9375 
C 9.203125 42.9375 12.203125 43.546875 12.203125 47.03125 
C 12.203125 50.109375 9.59375 51 8.203125 51 
C 7.59375 51 7 50.90625 6.59375 50.703125 
C 8.5 59.21875 14.296875 63.40625 20.40625 63.40625 
C 29.09375 63.40625 34.796875 56.515625 34.796875 47.421875 
C 34.796875 38.734375 29.703125 31.25 24 24.75 
L 4.09375 2.28125 
L 4.09375 0 
L 39.296875 0 
z
" id="CMR17-50"/>
      </defs>
      <g transform="translate(20.2775 147.878274)scale(0.11 -0.11)">
       <use transform="scale(0.996264)" xlink:href="#CMR17-50"/>
       <use transform="translate(45.690477 0)scale(0.996264)" xlink:href="#CMR17-48"/>
       <use transform="translate(91.380954 0)scale(0.996264)" xlink:href="#CMR17-48"/>
       <use transform="translate(137.071431 0)scale(0.996264)" xlink:href="#CMR17-48"/>
      </g>
     </g>
    </g>
    <g id="ytick_3">
     <g id="line2d_6">
      <g>
       <use style="stroke:#000000;stroke-width:0.8;" x="49.195369" xlink:href="#mcb0f9c7e86" y="98.245215"/>
      </g>
     </g>
     <g id="text_6">
      <!-- $4000$ -->
      <defs>
       <path d="M 33.59375 64.40625 
C 33.59375 66.5 33.5 66.5 31.703125 66.5 
L 2 19.59375 
L 2 17 
L 27.796875 17 
L 27.796875 7.140625 
C 27.796875 3.5 27.59375 2.5 20.59375 2.5 
L 18.703125 2.5 
L 18.703125 0 
C 21.90625 0 27.296875 0 30.703125 0 
C 34.09375 0 39.5 0 42.703125 0 
L 42.703125 2.5 
L 40.796875 2.5 
C 33.796875 2.5 33.59375 3.5 33.59375 7.140625 
L 33.59375 17 
L 43.796875 17 
L 43.796875 19.59375 
L 33.59375 19.59375 
z
M 28.09375 57.859375 
L 28.09375 19.59375 
L 4 19.59375 
z
" id="CMR17-52"/>
      </defs>
      <g transform="translate(20.2775 102.050388)scale(0.11 -0.11)">
       <use transform="scale(0.996264)" xlink:href="#CMR17-52"/>
       <use transform="translate(45.690477 0)scale(0.996264)" xlink:href="#CMR17-48"/>
       <use transform="translate(91.380954 0)scale(0.996264)" xlink:href="#CMR17-48"/>
       <use transform="translate(137.071431 0)scale(0.996264)" xlink:href="#CMR17-48"/>
      </g>
     </g>
    </g>
    <g id="ytick_4">
     <g id="line2d_7">
      <g>
       <use style="stroke:#000000;stroke-width:0.8;" x="49.195369" xlink:href="#mcb0f9c7e86" y="52.417329"/>
      </g>
     </g>
     <g id="text_7">
      <!-- $6000$ -->
      <defs>
       <path d="M 10.59375 34 
C 10.59375 57.65625 21.796875 63 28.296875 63 
C 30.40625 63 35.5 62.640625 37.5 59 
C 35.90625 59 32.90625 59 32.90625 55.515625 
C 32.90625 52.828125 35.09375 51.921875 36.5 51.921875 
C 37.40625 51.921875 40.09375 52.3125 40.09375 55.625 
C 40.09375 61.78125 35.09375 65.296875 28.203125 65.296875 
C 16.296875 65.296875 3.796875 52.96875 3.796875 31 
C 3.796875 3.953125 15.09375 -2 23.09375 -2 
C 32.796875 -2 42 6.671875 42 20.046875 
C 42 32.515625 33.90625 41.59375 23.703125 41.59375 
C 17.59375 41.59375 13.09375 37.609375 10.59375 30.625 
z
M 23.09375 0.390625 
C 10.796875 0.390625 10.796875 18.75 10.796875 22.4375 
C 10.796875 29.625 14.203125 40 23.5 40 
C 25.203125 40 30.09375 40 33.40625 33.125 
C 35.203125 29.21875 35.203125 25.140625 35.203125 20.140625 
C 35.203125 14.75 35.203125 10.78125 33.09375 6.78125 
C 30.90625 2.671875 27.703125 0.390625 23.09375 0.390625 
z
" id="CMR17-54"/>
      </defs>
      <g transform="translate(20.2775 56.222503)scale(0.11 -0.11)">
       <use transform="scale(0.996264)" xlink:href="#CMR17-54"/>
       <use transform="translate(45.690477 0)scale(0.996264)" xlink:href="#CMR17-48"/>
       <use transform="translate(91.380954 0)scale(0.996264)" xlink:href="#CMR17-48"/>
       <use transform="translate(137.071431 0)scale(0.996264)" xlink:href="#CMR17-48"/>
      </g>
     </g>
    </g>
    <g id="text_8">
     <!-- Cycles -->
     <defs>
      <path d="M 62.09375 67.015625 
C 62.09375 68.796875 62 68.90625 61.40625 68.90625 
C 61 68.90625 60.90625 68.796875 60.203125 67.609375 
L 55.796875 59.25 
C 50.90625 65.421875 44.90625 69 37.203125 69 
C 20.09375 69 4.59375 54 4.59375 33.5625 
C 4.59375 12.90625 20.09375 -2 37.296875 -2 
C 52.59375 -2 62.09375 11.40625 62.09375 22.828125 
C 62.09375 23.8125 62.09375 24.21875 61.203125 24.21875 
C 60.40625 24.21875 60.40625 23.921875 60.296875 23.03125 
C 59.5 9.140625 49.5 0.59375 38.703125 0.59375 
C 28.5 0.59375 12.203125 7.734375 12.203125 33.546875 
C 12.203125 59.453125 28.796875 66.40625 38.5 66.40625 
C 49.796875 66.40625 58 56.6875 59.90625 42.890625 
C 60.09375 41.6875 60.09375 41.484375 61 41.484375 
C 62.09375 41.484375 62.09375 41.6875 62.09375 43.484375 
z
" id="CMR17-67"/>
      <path d="M 39 34.328125 
C 41.5 40.40625 46 40.40625 47.40625 40.40625 
L 47.40625 43 
C 45.5 43 43 43 41.09375 43 
C 39 43 35.703125 43 33.703125 43.09375 
L 33.703125 40.5 
C 37.5 40.203125 37.59375 37.40625 37.59375 36.609375 
C 37.59375 35.625 37.40625 35.125 36.90625 33.921875 
L 26 7.015625 
L 14.09375 36.03125 
C 13.59375 37.21875 13.59375 37.90625 13.59375 38.015625 
C 13.59375 40.203125 15.90625 40.40625 18.296875 40.40625 
L 18.296875 43.09375 
C 15.90625 43 11.59375 43 9.09375 43 
C 6.40625 43 3.203125 43 1 43.09375 
L 1 40.40625 
C 6.40625 40.40625 7 39.90625 8.296875 36.71875 
L 23.203125 0.234375 
C 18.703125 -11.53125 16.09375 -18.40625 9.796875 -18.40625 
C 8.703125 -18.40625 6.203125 -18.109375 4.40625 -16.3125 
C 6.703125 -16.109375 7.703125 -14.71875 7.703125 -13.015625 
C 7.703125 -11.328125 6.5 -9.828125 4.5 -9.828125 
C 2.296875 -9.828125 1.203125 -11.328125 1.203125 -13.125 
C 1.203125 -17.109375 5.296875 -20 9.796875 -20 
C 15.59375 -20 19.203125 -14.40625 21.203125 -9.4375 
z
" id="CMR17-121"/>
      <path d="M 34.90625 35 
C 33 35 30.203125 35 30.203125 31.515625 
C 30.203125 28.71875 32.5 27.921875 33.796875 27.921875 
C 34.5 27.921875 37.40625 28.234375 37.40625 31.625 
C 37.40625 38.546875 30.59375 43.796875 22.90625 43.796875 
C 12.296875 43.796875 3.296875 34.03125 3.296875 21.296875 
C 3.296875 8.0625 12.703125 -1 22.90625 -1 
C 35.296875 -1 38.40625 10.578125 38.40625 11.6875 
C 38.40625 12.09375 38.296875 12.390625 37.59375 12.390625 
C 36.90625 12.390625 36.796875 12.296875 36.40625 10.984375 
C 33.796875 2.8125 28.09375 0.796875 23.796875 0.796875 
C 17.40625 0.796875 9.703125 6.671875 9.703125 21.390625 
C 9.703125 36.53125 17.09375 42 23 42 
C 26.90625 42 32.703125 40.203125 34.90625 35 
z
" id="CMR17-99"/>
      <path d="M 15.296875 68.6875 
L 3.40625 67.59375 
L 3.40625 65 
C 9.296875 65 10.203125 64.40625 10.203125 59.640625 
L 10.203125 6.65625 
C 10.203125 2.875 9.796875 2.390625 3.40625 2.390625 
L 3.40625 -0.203125 
C 5.796875 0 10.203125 0 12.703125 0 
C 15.296875 0 19.703125 0 22.09375 -0.203125 
L 22.09375 2.390625 
C 15.703125 2.390625 15.296875 2.78125 15.296875 6.65625 
z
" id="CMR17-108"/>
      <path d="M 38.09375 23 
C 38.5 23.40625 38.5 23.609375 38.5 24.625 
C 38.5 34.96875 33.09375 44 21.703125 44 
C 11.09375 44 2.703125 33.890625 2.703125 21.609375 
C 2.703125 8.609375 12.203125 -1 22.796875 -1 
C 34 -1 38.40625 9.484375 38.40625 11.5625 
C 38.40625 12.25 37.796875 12.25 37.59375 12.25 
C 36.90625 12.25 36.796875 12.046875 36.40625 10.875 
C 34.203125 4.140625 28.703125 0.796875 23.5 0.796875 
C 19.203125 0.796875 14.90625 3.171875 12.203125 7.5 
C 9.09375 12.546875 9.09375 18.375 9.09375 23 
z
M 9.203125 24.5 
C 9.90625 39.140625 17.59375 42.40625 21.59375 42.40625 
C 28.40625 42.40625 33 35.890625 33.09375 24.5 
z
" id="CMR17-101"/>
      <path d="M 30.90625 42.140625 
C 30.90625 43.953125 30.796875 44.046875 30.203125 44.046875 
C 29.796875 44.046875 29.703125 43.953125 28.5 42.453125 
C 28.203125 42.046875 27.296875 41.03125 27 40.640625 
C 23.796875 44.046875 19.296875 44.046875 17.59375 44.046875 
C 6.5 44.046875 2.5 38.234375 2.5 32.4375 
C 2.5 23.40625 12.703125 21.328125 15.59375 20.703125 
C 21.90625 19.421875 24.09375 19.015625 26.203125 17.203125 
C 27.5 16.015625 29.703125 13.8125 29.703125 10.21875 
C 29.703125 6 27.296875 0.59375 18.09375 0.59375 
C 9.40625 0.59375 6.296875 7.1875 4.5 15.953125 
C 4.203125 17.34375 4.203125 17.453125 3.40625 17.453125 
C 2.59375 17.453125 2.5 17.34375 2.5 15.359375 
L 2.5 0.984375 
C 2.5 -0.796875 2.59375 -0.90625 3.203125 -0.90625 
C 3.703125 -0.90625 3.796875 -0.796875 4.296875 0 
C 4.90625 0.890625 6.40625 3.296875 7 4.3125 
C 9 1.609375 12.5 -1 18.09375 -1 
C 28 -1 33.296875 4.421875 33.296875 12.25 
C 33.296875 17.375 30.59375 20.078125 29.296875 21.28125 
C 26.296875 24.390625 22.796875 25.09375 18.59375 25.890625 
C 13.09375 27.109375 6.09375 28.515625 6.09375 34.640625 
C 6.09375 37.234375 7.5 42.765625 17.59375 42.765625 
C 28.296875 42.765625 28.90625 32.71875 29.09375 29.5 
C 29.203125 29 29.703125 28.890625 30 28.890625 
C 30.90625 28.890625 30.90625 29.203125 30.90625 30.90625 
z
" id="CMR17-115"/>
     </defs>
     <g transform="translate(14.146605 119.956999)rotate(-90)scale(0.11 -0.11)">
      <use transform="scale(0.996264)" xlink:href="#CMR17-67"/>
      <use transform="translate(66.509881 0)scale(0.996264)" xlink:href="#CMR17-121"/>
      <use transform="translate(114.802796 0)scale(0.996264)" xlink:href="#CMR17-99"/>
      <use transform="translate(155.288457 0)scale(0.996264)" xlink:href="#CMR17-108"/>
      <use transform="translate(180.159515 0)scale(0.996264)" xlink:href="#CMR17-101"/>
      <use transform="translate(220.645176 0)scale(0.996264)" xlink:href="#CMR17-115"/>
     </g>
    </g>
   </g>
   <g id="patch_9">
    <path d="M 49.195369 189.900986 
L 49.195369 19.20625 
" style="fill:none;stroke:#000000;stroke-linecap:square;stroke-linejoin:miter;stroke-width:0.8;"/>
   </g>
   <g id="patch_10">
    <path d="M 408.75272 189.900986 
L 408.75272 19.20625 
" style="fill:none;stroke:#000000;stroke-linecap:square;stroke-linejoin:miter;stroke-width:0.8;"/>
   </g>
   <g id="patch_11">
    <path d="M 49.195369 189.900986 
L 408.75272 189.900986 
" style="fill:none;stroke:#000000;stroke-linecap:square;stroke-linejoin:miter;stroke-width:0.8;"/>
   </g>
   <g id="patch_12">
    <path d="M 49.195369 19.20625 
L 408.75272 19.20625 
" style="fill:none;stroke:#000000;stroke-linecap:square;stroke-linejoin:miter;stroke-width:0.8;"/>
   </g>
   <g id="text_9">
    <!-- Future timings -->
    <defs>
     <path d="M 54.40625 67.578125 
L 5.09375 67.578125 
L 5.09375 65 
C 12 65 13.09375 65 13.09375 60.53125 
L 13.09375 6.96875 
C 13.09375 2.5 12 2.5 5.09375 2.5 
L 5.09375 0 
C 8 0 13.59375 0 16.703125 0 
C 20.796875 0 25.59375 0 29.703125 0 
L 29.703125 2.5 
L 27.5 2.5 
C 19.90625 2.5 19.703125 3.484375 19.703125 7.0625 
L 19.703125 32.421875 
L 28.703125 32.421875 
C 38 32.421875 38.90625 29.140625 38.90625 20.8125 
L 40.703125 20.8125 
L 40.703125 46.671875 
L 38.90625 46.671875 
C 38.90625 38.28125 38 35 28.703125 35 
L 19.703125 35 
L 19.703125 61.109375 
C 19.703125 64.5 19.90625 65 23.90625 65 
L 36.796875 65 
C 51.90625 65 53.59375 58.828125 55 45.5625 
L 56.796875 45.5625 
z
" id="CMR17-70"/>
     <path d="M 29.40625 42.078125 
L 29.40625 39.5 
C 35.296875 39.5 36.203125 38.890625 36.203125 34.15625 
L 36.203125 16.125 
C 36.203125 7.8125 31.703125 0.59375 24.296875 0.59375 
C 16.09375 0.59375 15.40625 5.4375 15.40625 10.59375 
L 15.40625 43.171875 
L 3.296875 42.078125 
L 3.296875 39.5 
C 7.296875 39.5 10 39.5 10.09375 35.53125 
L 10.09375 16.53125 
C 10.09375 9.890625 10.09375 5.640625 12.703125 2.859375 
C 14 1.578125 16.5 -1 23.703125 -1 
C 32.203125 -1 35.5 5.890625 36.296875 7.90625 
L 36.40625 7.90625 
L 36.40625 -0.984375 
L 48.296875 -0.984375 
L 48.296875 2 
C 42.40625 2 41.5 2.59375 41.5 7.390625 
L 41.5 43.171875 
z
" id="CMR17-117"/>
     <path d="M 15.09375 40 
L 29.09375 40 
L 29.09375 42.578125 
L 15.09375 42.578125 
L 15.09375 61 
L 13.296875 61 
C 13.09375 50.703125 9.59375 41.6875 1.09375 41.6875 
L 1.09375 40 
L 9.796875 40 
L 9.796875 12.046875 
C 9.796875 10.15625 9.796875 -1 21.40625 -1 
C 27.296875 -1 30.703125 4.78125 30.703125 12.140625 
L 30.703125 17.8125 
L 28.90625 17.8125 
L 28.90625 12.234375 
C 28.90625 5.375 26.203125 0.796875 22 0.796875 
C 19.09375 0.796875 15.09375 2.78125 15.09375 11.84375 
z
" id="CMR17-116"/>
     <path d="M 15 23.390625 
C 15 33 19.09375 42 26.59375 42 
C 27.296875 42 28 41.90625 28.703125 41.59375 
C 28.703125 41.59375 26.5 40.890625 26.5 38.3125 
C 26.5 35.90625 28.40625 34.90625 29.90625 34.90625 
C 31.09375 34.90625 33.296875 35.609375 33.296875 38.40625 
C 33.296875 41.609375 30.09375 43.59375 26.703125 43.59375 
C 19.09375 43.59375 15.796875 36.203125 14.796875 32.703125 
L 14.703125 32.703125 
L 14.703125 43.59375 
L 3.09375 42.5 
L 3.09375 39.90625 
C 9 39.90625 9.90625 39.296875 9.90625 34.5 
L 9.90625 6.6875 
C 9.90625 2.875 9.5 2.390625 3.09375 2.390625 
L 3.09375 -0.203125 
C 5.5 0 10.09375 0 12.703125 0 
C 15.59375 0 20.703125 0 23.40625 -0.203125 
L 23.40625 2.390625 
C 16.203125 2.390625 15 2.390625 15 6.875 
z
" id="CMR17-114"/>
     <path d="M 15.5 61.078125 
C 15.5 63.265625 13.703125 65.15625 11.40625 65.15625 
C 9.203125 65.15625 7.296875 63.375 7.296875 61.078125 
C 7.296875 58.890625 9.09375 57 11.40625 57 
C 13.59375 57 15.5 58.796875 15.5 61.078125 
z
M 3.796875 42.28125 
L 3.796875 39.703125 
C 9.40625 39.703125 10.203125 39.09375 10.203125 34.328125 
L 10.203125 6.671875 
C 10.203125 2.875 9.796875 2.390625 3.40625 2.390625 
L 3.40625 -0.203125 
C 5.796875 0 10.09375 0 12.59375 0 
C 15 0 19.09375 0 21.40625 -0.203125 
L 21.40625 2.390625 
C 15.5 2.390625 15.296875 2.984375 15.296875 6.5625 
L 15.296875 43.375 
z
" id="CMR17-105"/>
     <path d="M 67.59375 30.203125 
C 67.59375 35.1875 66.703125 43.59375 54.796875 43.59375 
C 48 43.59375 43.296875 39 41.5 33.609375 
L 41.40625 33.609375 
C 40.203125 41.8125 34.296875 43.59375 28.703125 43.59375 
C 20.796875 43.59375 16.703125 37.5 15.203125 33.5 
L 15.09375 33.5 
L 15.09375 43.59375 
L 3.296875 42.5 
L 3.296875 39.90625 
C 9.203125 39.90625 10.09375 39.296875 10.09375 34.5 
L 10.09375 6.6875 
C 10.09375 2.875 9.703125 2.390625 3.296875 2.390625 
L 3.296875 -0.203125 
C 5.703125 0 10.09375 0 12.703125 0 
C 15.296875 0 19.796875 0 22.203125 -0.203125 
L 22.203125 2.390625 
C 15.796875 2.390625 15.40625 2.78125 15.40625 6.6875 
L 15.40625 25.90625 
C 15.40625 35.109375 21 42 28 42 
C 35.40625 42 36.203125 35.40625 36.203125 30.59375 
L 36.203125 6.6875 
C 36.203125 2.875 35.796875 2.390625 29.40625 2.390625 
L 29.40625 -0.203125 
C 31.796875 0 36.203125 0 38.796875 0 
C 41.40625 0 45.90625 0 48.296875 -0.203125 
L 48.296875 2.390625 
C 41.90625 2.390625 41.5 2.78125 41.5 6.6875 
L 41.5 25.90625 
C 41.5 35.109375 47.09375 42 54.09375 42 
C 61.5 42 62.296875 35.40625 62.296875 30.59375 
L 62.296875 6.6875 
C 62.296875 2.875 61.90625 2.390625 55.5 2.390625 
L 55.5 -0.203125 
C 57.90625 0 62.296875 0 64.90625 0 
C 67.5 0 72 0 74.40625 -0.203125 
L 74.40625 2.390625 
C 68 2.390625 67.59375 2.78125 67.59375 6.6875 
z
" id="CMR17-109"/>
     <path d="M 41.5 30.203125 
C 41.5 35.296875 40.5 43.59375 28.703125 43.59375 
C 20.796875 43.59375 16.703125 37.5 15.203125 33.5 
L 15.09375 33.5 
L 15.09375 43.59375 
L 3.296875 42.5 
L 3.296875 39.90625 
C 9.203125 39.90625 10.09375 39.296875 10.09375 34.5 
L 10.09375 6.6875 
C 10.09375 2.875 9.703125 2.390625 3.296875 2.390625 
L 3.296875 -0.203125 
C 5.703125 0 10.09375 0 12.703125 0 
C 15.296875 0 19.796875 0 22.203125 -0.203125 
L 22.203125 2.390625 
C 15.796875 2.390625 15.40625 2.78125 15.40625 6.6875 
L 15.40625 25.90625 
C 15.40625 35.109375 21 42 28 42 
C 35.40625 42 36.203125 35.40625 36.203125 30.59375 
L 36.203125 6.6875 
C 36.203125 2.875 35.796875 2.390625 29.40625 2.390625 
L 29.40625 -0.203125 
C 31.796875 0 36.203125 0 38.796875 0 
C 41.40625 0 45.90625 0 48.296875 -0.203125 
L 48.296875 2.390625 
C 41.90625 2.390625 41.5 2.78125 41.5 6.6875 
z
" id="CMR17-110"/>
     <path d="M 11.09375 18.1875 
C 13 16.6875 16.296875 15 20.296875 15 
C 28.203125 15 35 21.203125 35 29.5 
C 35 32.09375 34.203125 36.09375 31.203125 39.203125 
C 34 42.0625 38.09375 43 40.40625 43 
C 40.796875 43 41.40625 43 41.90625 42.71875 
C 41.5 42.625 40.59375 42.234375 40.59375 40.703125 
C 40.59375 39.484375 41.5 38.609375 42.796875 38.609375 
C 44.296875 38.609375 45.09375 39.578125 45.09375 40.84375 
C 45.09375 42.671875 43.59375 44.59375 40.40625 44.59375 
C 36.40625 44.59375 32.90625 42.78125 30.09375 40.3125 
C 27.09375 43.015625 23.5 44 20.296875 44 
C 12.40625 44 5.59375 37.796875 5.59375 29.5 
C 5.59375 23.78125 8.90625 20.1875 9.90625 19.1875 
C 6.90625 15.6875 6.90625 11.609375 6.90625 11.109375 
C 6.90625 8.515625 7.90625 4.71875 11.296875 2.625 
C 6.09375 1.328125 2 -2.640625 2 -7.59375 
C 2 -14.734375 11.5 -20 22.90625 -20 
C 33.90625 -20 43.796875 -14.9375 43.796875 -7.484375 
C 43.796875 6 29 6 21.296875 6 
C 19 6 14.90625 6 14.40625 6.109375 
C 11.296875 6.609375 9.203125 9.40625 9.203125 12.90625 
C 9.203125 13.796875 9.203125 16 11.09375 18.1875 
z
M 20.296875 16.6875 
C 11.5 16.6875 11.5 27.5 11.5 29.515625 
C 11.5 31.5 11.5 42.3125 20.296875 42.3125 
C 29.09375 42.3125 29.09375 31.5 29.09375 29.515625 
C 29.09375 27.5 29.09375 16.6875 20.296875 16.6875 
z
M 22.90625 -18.296875 
C 12.90625 -18.296875 6 -13.046875 6 -7.59375 
C 6 -4.515625 7.703125 -1.640625 9.90625 -0.0625 
C 12.40625 1.625 13.40625 1.625 20.203125 1.625 
C 28.40625 1.625 39.796875 1.625 39.796875 -7.59375 
C 39.796875 -13.046875 32.90625 -18.296875 22.90625 -18.296875 
z
" id="CMR17-103"/>
    </defs>
    <g transform="translate(193.54018 13.20625)scale(0.11 -0.11)">
     <use transform="scale(0.996264)" xlink:href="#CMR17-70"/>
     <use transform="translate(52.176591 0)scale(0.996264)" xlink:href="#CMR17-117"/>
     <use transform="translate(103.071961 0)scale(0.996264)" xlink:href="#CMR17-116"/>
     <use transform="translate(138.352729 0)scale(0.996264)" xlink:href="#CMR17-117"/>
     <use transform="translate(189.248099 0)scale(0.996264)" xlink:href="#CMR17-114"/>
     <use transform="translate(224.528866 0)scale(0.996264)" xlink:href="#CMR17-101"/>
     <use transform="translate(295.090493 0)scale(0.996264)" xlink:href="#CMR17-116"/>
     <use transform="translate(330.371261 0)scale(0.996264)" xlink:href="#CMR17-105"/>
     <use transform="translate(355.242319 0)scale(0.996264)" xlink:href="#CMR17-109"/>
     <use transform="translate(432.161909 0)scale(0.996264)" xlink:href="#CMR17-105"/>
     <use transform="translate(457.032968 0)scale(0.996264)" xlink:href="#CMR17-110"/>
     <use transform="translate(507.928338 0)scale(0.996264)" xlink:href="#CMR17-103"/>
     <use transform="translate(553.618815 0)scale(0.996264)" xlink:href="#CMR17-115"/>
    </g>
   </g>
   <g id="legend_1">
    <g id="patch_13">
     <path d="M 56.895369 58.668039 
L 126.859519 58.668039 
Q 129.059519 58.668039 129.059519 56.468039 
L 129.059519 26.90625 
Q 129.059519 24.70625 126.859519 24.70625 
L 56.895369 24.70625 
Q 54.695369 24.70625 54.695369 26.90625 
L 54.695369 56.468039 
Q 54.695369 58.668039 56.895369 58.668039 
z
" style="fill:#ffffff;opacity:0.8;stroke:#cccccc;stroke-linejoin:miter;"/>
    </g>
    <g id="patch_14">
     <path d="M 59.095369 36.80625 
L 81.095369 36.80625 
L 81.095369 29.10625 
L 59.095369 29.10625 
z
" style="fill:#1f77b4;"/>
    </g>
    <g id="text_10">
     <!-- skylake -->
     <defs>
      <path d="M 26.09375 26.140625 
C 26 26.34375 25.5 26.9375 25.5 27.234375 
C 25.5 27.4375 32.59375 33.921875 33.5 34.71875 
C 39.203125 39.5 42.796875 40 45.40625 40 
L 45.40625 42.703125 
C 44.796875 42.703125 44.59375 42.703125 44.5 42.5 
L 39.59375 42.5 
C 36.796875 42.5 32.5 42.5 29.796875 42.703125 
L 29.796875 40.09375 
C 31.203125 39.984375 32.203125 39.1875 32.203125 37.796875 
C 32.203125 35.796875 30.203125 33.90625 30.09375 33.90625 
L 15 20.140625 
L 15 68.6875 
L 3.09375 67.59375 
L 3.09375 65 
C 9 65 9.90625 64.40625 9.90625 59.640625 
L 9.90625 6.65625 
C 9.90625 2.875 9.5 2.390625 3.09375 2.390625 
L 3.09375 -0.203125 
C 5.5 0 9.90625 0 12.40625 0 
C 14.90625 0 19.296875 0 21.703125 -0.203125 
L 21.703125 2.390625 
C 15.296875 2.390625 14.90625 2.78125 14.90625 6.6875 
L 14.90625 17.65625 
L 21.796875 23.9375 
L 31.90625 8.96875 
C 33.09375 7.171875 34.09375 5.765625 34.09375 4.46875 
C 34.09375 2.6875 32.296875 2.390625 31.09375 2.390625 
L 31.09375 -0.203125 
C 33.5 0 37.796875 0 40.296875 0 
C 42.09375 0 45.796875 0 47.5 0 
L 47.5 2.390625 
C 42.796875 2.390625 41.703125 3.28125 38.703125 7.671875 
z
" id="CMR17-107"/>
      <path d="M 36 25.828125 
C 36 32.375 36 35.84375 31.796875 39.734375 
C 28.09375 43 23.796875 44 20.40625 44 
C 12.5 44 6.796875 37.609375 6.796875 30.796875 
C 6.796875 27 9.796875 27 10.40625 27 
C 11.703125 27 14 27.78125 14 30.53125 
C 14 33 12.09375 34.078125 10.40625 34.078125 
C 10 34.078125 9.5 33.96875 9.203125 33.875 
C 11.296875 40.5 16.703125 42.40625 20.203125 42.40625 
C 25.203125 42.40625 30.703125 37.953125 30.703125 29.453125 
L 30.703125 25 
C 24.796875 25 17.703125 24.203125 12.09375 21.203125 
C 5.796875 17.703125 4 12.703125 4 8.90625 
C 4 1.203125 13 -1 18.296875 -1 
C 23.796875 -1 28.90625 2.171875 31.09375 7.984375 
C 31.296875 3.640625 34.09375 -0.28125 38.5 -0.28125 
C 40.59375 -0.28125 45.90625 1.09375 45.90625 8.859375 
L 45.90625 14.375 
L 44.09375 14.375 
L 44.09375 8.78125 
C 44.09375 2.78125 41.40625 2 40.09375 2 
C 36 2 36 7.15625 36 11.53125 
z
M 30.703125 13.59375 
C 30.703125 4.953125 24.5 0.59375 19 0.59375 
C 14 0.59375 10.09375 4.296875 10.09375 8.90625 
C 10.09375 11.890625 11.40625 17.1875 17.203125 20.390625 
C 22 23.09375 27.5 23.5 30.703125 23.5 
z
" id="CMR17-97"/>
     </defs>
     <g transform="translate(89.895369 36.80625)scale(0.11 -0.11)">
      <use transform="scale(0.996264)" xlink:href="#CMR17-115"/>
      <use transform="translate(35.801338 0)scale(0.996264)" xlink:href="#CMR17-107"/>
      <use transform="translate(84.094253 0)scale(0.996264)" xlink:href="#CMR17-121"/>
      <use transform="translate(132.387169 0)scale(0.996264)" xlink:href="#CMR17-108"/>
      <use transform="translate(157.258228 0)scale(0.996264)" xlink:href="#CMR17-97"/>
      <use transform="translate(202.948705 0)scale(0.996264)" xlink:href="#CMR17-107"/>
      <use transform="translate(248.639167 0)scale(0.996264)" xlink:href="#CMR17-101"/>
     </g>
    </g>
    <g id="patch_15">
     <path d="M 59.095369 52.137145 
L 81.095369 52.137145 
L 81.095369 44.437145 
L 59.095369 44.437145 
z
" style="fill:#ff7f0e;"/>
    </g>
    <g id="text_11">
     <!-- naples -->
     <defs>
      <path d="M 22 -16.609375 
C 15.59375 -16.609375 15.203125 -16.203125 15.203125 -12.328125 
L 15.203125 6.28125 
C 18.09375 2.09375 22.296875 -0.59375 27.59375 -0.59375 
C 37.59375 -0.59375 47.703125 8.171875 47.703125 21.6875 
C 47.703125 34.234375 39 43.78125 28.703125 43.78125 
C 22.703125 43.78125 17.796875 40.5 15 36.53125 
L 15 43.78125 
L 3.09375 42.6875 
L 3.09375 40.109375 
C 9 40.109375 9.90625 39.5 9.90625 34.734375 
L 9.90625 -12.328125 
C 9.90625 -16.109375 9.5 -16.609375 3.09375 -16.609375 
L 3.09375 -19.1875 
C 5.5 -19 9.90625 -19 12.5 -19 
C 15.09375 -19 19.59375 -19 22 -19.1875 
z
M 15.203125 31.4375 
C 15.203125 32.84375 15.203125 34.921875 19.09375 38.609375 
C 19.59375 39.015625 23 42 28 42 
C 35.296875 42 41.296875 32.9375 41.296875 21.59375 
C 41.296875 10.25 34.90625 1 27 1 
C 23.40625 1 19.5 2.6875 16.5 7.375 
C 15.203125 9.5625 15.203125 10.15625 15.203125 11.75 
z
" id="CMR17-112"/>
     </defs>
     <g transform="translate(89.895369 52.137145)scale(0.11 -0.11)">
      <use transform="scale(0.996264)" xlink:href="#CMR17-110"/>
      <use transform="translate(50.89537 0)scale(0.996264)" xlink:href="#CMR17-97"/>
      <use transform="translate(96.585847 0)scale(0.996264)" xlink:href="#CMR17-112"/>
      <use transform="translate(147.481217 0)scale(0.996264)" xlink:href="#CMR17-108"/>
      <use transform="translate(172.352275 0)scale(0.996264)" xlink:href="#CMR17-101"/>
      <use transform="translate(212.837936 0)scale(0.996264)" xlink:href="#CMR17-115"/>
     </g>
    </g>
   </g>
  </g>
 </g>
 <defs>
  <clipPath id="p9a69e42160">
   <rect height="170.694736" width="359.557351" x="49.195369" y="19.20625"/>
  </clipPath>
 </defs>
</svg>
